<svg width="106" height="49" viewBox="0 0 106 49" fill="none" xmlns="http://www.w3.org/2000/svg">
<mask id="path-1-outside-1_129_101" maskUnits="userSpaceOnUse" x="-0.359375" y="-0.0166016" width="106" height="49" fill="black">
<rect fill="white" x="-0.359375" y="-0.0166016" width="106" height="49"/>
<path d="M26.3926 11.2324C26.373 15.8809 24.5859 19.8262 21.0312 23.0684C17.6719 26.1152 13.1797 28.2344 7.55469 29.4258L5.41602 45.5977C5.39648 45.7148 5.37695 45.832 5.35742 45.9492C5.06445 47.3164 4.29297 48 3.04297 48C2.57422 48 2.16406 47.8828 1.8125 47.6484C1.03125 47.1406 0.640625 46.3105 0.640625 45.1582C0.640625 45.0215 2.41797 31.5742 5.97266 4.81641C6.01172 4.48438 6.10938 4.16211 6.26562 3.84961C6.75391 2.93164 7.51562 2.47266 8.55078 2.47266C10.3477 2.14062 12.2715 1.97461 14.3223 1.97461C16.4512 1.97461 18.3555 2.23828 20.0352 2.76562C24.2734 4.11328 26.3926 6.93555 26.3926 11.2324ZM21.998 11.4961C21.998 11.3984 21.998 11.291 21.998 11.1738C21.8223 7.9707 19.3027 6.36914 14.4395 6.36914C13.1113 6.36914 11.7637 6.4668 10.3965 6.66211C10.2793 7.77539 9.54688 13.6055 8.19922 24.1523C10.9336 23.7422 13.5117 22.7949 15.9336 21.3105C19.9766 18.8301 21.998 15.5586 21.998 11.4961Z"/>
<path d="M33.5771 27.9438C33.5771 28.4442 33.4909 29.5225 33.3184 31.1787C32.7835 36.0785 32.5161 39.1235 32.5161 40.314C32.5161 41.1076 32.68 41.8494 33.0078 42.5396C33.4909 43.5747 34.1379 44.0923 34.9487 44.0923C35.1213 44.0923 35.3024 44.075 35.4922 44.0405C35.9925 43.9198 36.7171 43.5143 37.666 42.8242C38.5977 42.1341 39.3481 41.7891 39.9175 41.7891C40.159 41.7891 40.4006 41.8753 40.6421 42.0479C41.1252 42.3929 41.3667 42.8501 41.3667 43.4194C41.2977 44.2993 40.6162 45.231 39.3223 46.2144C37.735 47.3185 36.0701 47.8706 34.3276 47.8706C32.8612 47.8706 31.6449 47.3617 30.6787 46.3438C29.2295 44.791 28.5049 42.3239 28.5049 38.9424C28.5049 37.7865 28.7378 35.5264 29.2036 32.1621C29.4106 30.5921 29.5573 29.4362 29.6436 28.6943C29.6608 28.5391 29.6781 28.3838 29.6953 28.2285C29.9714 26.5033 30.6787 25.6406 31.8174 25.6406C32.0072 25.6406 32.1969 25.6579 32.3867 25.6924C33.1803 25.8822 33.5771 26.6326 33.5771 27.9438ZM30.627 21.1636C30.627 20.853 30.696 20.5597 30.834 20.2837C31.179 19.6108 31.7397 19.2744 32.5161 19.2744C32.8267 19.2744 33.12 19.3434 33.396 19.4814C34.0688 19.8265 34.4053 20.3872 34.4053 21.1636C34.4053 21.4741 34.3363 21.7674 34.1982 22.0435C33.8532 22.7163 33.2925 23.0527 32.5161 23.0527C32.2056 23.0527 31.9123 22.9837 31.6362 22.8457C30.9634 22.5007 30.627 21.9399 30.627 21.1636Z"/>
<path d="M42.6606 44.5581C42.6606 44.5581 46.3786 39.5635 53.8145 29.5742H45.4297C44.8604 29.5742 44.3859 29.5397 44.0063 29.4707C42.9884 29.2637 42.4795 28.6771 42.4795 27.7109C42.4795 27.6074 42.4967 27.4953 42.5312 27.3745C42.7728 26.4601 43.6009 26.0029 45.0156 26.0029H57.1787C57.4202 26.0029 57.6445 26.0374 57.8516 26.1064C58.6279 26.3307 59.0161 26.9259 59.0161 27.8921C59.0161 28.1509 58.9299 28.4614 58.7573 28.8237C58.6021 29.0998 57.4634 30.687 55.3413 33.5854C52.4946 37.5018 49.8464 41.1507 47.3965 44.5322H57.334C58.5417 44.5495 59.1628 45.1188 59.1973 46.2402C59.1973 46.5163 59.1455 46.7664 59.042 46.9907C58.7314 47.6636 57.7826 48 56.1953 48H43.7476C43.4888 48 43.23 47.9396 42.9712 47.8188C42.2638 47.4738 41.9102 46.9303 41.9102 46.1885C41.9102 46.1367 41.9102 46.085 41.9102 46.0332C41.9447 45.7744 42.1948 45.2827 42.6606 44.5581Z"/>
<path d="M64.2954 44.5581C64.2954 44.5581 68.0133 39.5635 75.4492 29.5742H67.0645C66.4951 29.5742 66.0207 29.5397 65.6411 29.4707C64.6232 29.2637 64.1143 28.6771 64.1143 27.7109C64.1143 27.6074 64.1315 27.4953 64.166 27.3745C64.4076 26.4601 65.2357 26.0029 66.6504 26.0029H78.8135C79.055 26.0029 79.2793 26.0374 79.4863 26.1064C80.2627 26.3307 80.6509 26.9259 80.6509 27.8921C80.6509 28.1509 80.5646 28.4614 80.3921 28.8237C80.2368 29.0998 79.0981 30.687 76.9761 33.5854C74.1294 37.5018 71.4811 41.1507 69.0312 44.5322H78.9688C80.1764 44.5495 80.7975 45.1188 80.832 46.2402C80.832 46.5163 80.7803 46.7664 80.6768 46.9907C80.3662 47.6636 79.4173 48 77.8301 48H65.3823C65.1235 48 64.8647 47.9396 64.606 47.8188C63.8986 47.4738 63.5449 46.9303 63.5449 46.1885C63.5449 46.1367 63.5449 46.085 63.5449 46.0332C63.5794 45.7744 63.8296 45.2827 64.2954 44.5581Z"/>
<path d="M81.2979 39.874C81.2979 39.2874 81.3324 38.6663 81.4014 38.0107C81.7637 35.0433 82.6953 32.4123 84.1963 30.1177C86.0251 27.3228 88.2248 25.9253 90.7954 25.9253C91.8996 25.9253 92.8657 26.141 93.6938 26.5723C94.0389 26.1582 94.5133 25.9425 95.1172 25.9253C95.4622 25.9253 95.6779 25.9512 95.7642 26.0029C96.506 26.2445 96.877 26.9777 96.877 28.2026C96.877 28.703 96.7907 29.7812 96.6182 31.4375C96.0833 36.3372 95.8159 39.3823 95.8159 40.5728C95.8159 41.3664 95.9798 42.1082 96.3076 42.7983C96.7907 43.8335 97.429 44.3511 98.2227 44.3511C98.3779 44.3511 98.5418 44.3338 98.7144 44.2993C99.2319 44.1958 99.9738 43.799 100.94 43.1089C101.889 42.4188 102.648 42.0737 103.217 42.0737C103.442 42.0737 103.674 42.1514 103.916 42.3066C104.416 42.6517 104.667 43.1089 104.667 43.6782C104.615 44.5754 103.933 45.507 102.622 46.4731C101.052 47.5773 99.3872 48.1294 97.6274 48.1294C95.4536 48.1121 93.8491 47.0166 92.814 44.8428C92.5724 45.1361 92.2964 45.4294 91.9858 45.7227C90.2778 47.3271 88.5439 48.1294 86.7842 48.1294C85.68 48.1294 84.7225 47.8447 83.9116 47.2754C82.1691 45.9987 81.2979 43.5316 81.2979 39.874ZM92.6846 31.3599C92.6846 31.3599 92.745 30.7733 92.8657 29.6001C92.4862 29.4103 92.0894 29.3154 91.6753 29.3154C91.3647 29.3154 91.0456 29.3586 90.7178 29.4448C89.1133 29.8934 87.759 31.3771 86.6548 33.896C85.6714 36.1561 85.1797 38.4248 85.1797 40.7021C85.1797 40.7884 85.1797 40.8747 85.1797 40.9609C85.2314 43.0658 85.7663 44.1182 86.7842 44.1182C87.319 44.1009 87.9746 43.8076 88.751 43.2383C89.5446 42.6689 90.1226 42.1341 90.4849 41.6338C90.7091 41.306 91.0111 40.3485 91.3906 38.7612C92.0807 35.811 92.512 33.3439 92.6846 31.3599Z"/>
<path d="M42.8184 4.74658C42.668 4.37744 42.4834 4.04248 42.2646 3.7417C41.7314 3.0376 41.1436 2.68555 40.501 2.68555C40.084 2.68555 39.6636 2.83936 39.2397 3.14697C38.4331 3.72119 37.7393 4.71924 37.1582 6.14111C36.5498 7.604 36.2456 9.03955 36.2456 10.4478C36.2456 11.8013 36.4644 12.9292 36.9019 13.8315C37.3872 14.8296 38.0503 15.3286 38.8911 15.3286C39.2808 15.3286 39.7148 15.1509 40.1934 14.7954C40.9453 14.228 41.5913 13.4043 42.1313 12.3242C42.145 12.2832 42.1655 12.2422 42.1929 12.2012C42.3501 11.9346 42.5791 11.8013 42.8799 11.8013C43.0234 11.8013 43.1602 11.8354 43.29 11.9038C43.5635 12.061 43.7002 12.3003 43.7002 12.6216C43.7002 12.7378 43.666 12.8711 43.5977 13.0215C43.1602 13.9512 42.6338 14.7407 42.0186 15.3901C40.9932 16.4634 39.8926 17 38.7168 17C38.5664 17 38.416 16.9897 38.2656 16.9692C37.2129 16.8188 36.3413 16.1934 35.6509 15.0928C34.8853 13.8691 34.5024 12.3379 34.5024 10.499C34.5024 9.40527 34.6597 8.29785 34.9741 7.17676C35.4663 5.41309 36.2251 3.9502 37.2505 2.78809C38.3237 1.58496 39.4585 0.983398 40.6548 0.983398C41.1675 0.983398 41.6562 1.09619 42.1211 1.32178C43.1055 1.81396 43.8438 2.74023 44.3359 4.10059C44.3906 4.23047 44.418 4.35693 44.418 4.47998C44.418 4.62354 44.3804 4.76025 44.3052 4.89014C44.1411 5.16357 43.9053 5.30029 43.5977 5.30029C43.2832 5.27979 43.0234 5.09521 42.8184 4.74658Z"/>
<path d="M55.1948 12.1396C55.1948 12.1396 55.4683 11.0527 56.0151 8.87891C56.1587 8.52344 56.4116 8.34229 56.7739 8.33545C56.9106 8.34229 57.0474 8.35596 57.1841 8.37646C58.3325 8.56104 59.2656 9.14551 59.9834 10.1299C60.6533 11.0527 60.9883 12.1055 60.9883 13.2881C60.9746 14.0195 60.8037 14.7646 60.4756 15.5234C60.0996 16.3506 59.6587 16.7642 59.1528 16.7642C59.0161 16.7642 58.8862 16.7061 58.7632 16.5898C58.5854 16.4189 58.4966 16.231 58.4966 16.0259C58.4966 15.937 58.5137 15.8447 58.5479 15.749C58.5479 15.749 58.5889 15.6738 58.6709 15.5234C59.1631 14.7373 59.4126 13.9409 59.4194 13.1343C59.4194 13.0386 59.416 12.9429 59.4092 12.8472C59.3408 11.9653 58.9956 11.2168 58.3735 10.6016C57.9771 10.1914 57.6147 9.98291 57.2866 9.97607C57.2183 10.2358 57.1055 10.7075 56.9482 11.3911C56.5996 12.9224 56.2646 14.0366 55.9434 14.7339C55.2393 16.231 54.2173 16.9795 52.8774 16.9795C52.0161 16.9727 51.3872 16.5386 50.9907 15.6772C50.9019 15.7798 50.7993 15.8857 50.6831 15.9951C49.9927 16.6514 49.2954 16.9795 48.5913 16.9795C48.1538 16.9795 47.7778 16.8667 47.4634 16.6411C46.7593 16.1421 46.4072 15.1646 46.4072 13.7085C46.4072 13.4761 46.4209 13.23 46.4482 12.9702C46.5918 11.8013 46.9609 10.7622 47.5557 9.85303C48.2871 8.73877 49.1621 8.18164 50.1807 8.18164C50.625 8.18164 51.0112 8.26709 51.3394 8.43799C51.4761 8.27393 51.6572 8.18848 51.8828 8.18164C51.9717 8.18164 52.0571 8.19189 52.1392 8.2124C52.4331 8.29443 52.5801 8.58496 52.5801 9.08398C52.5801 9.28223 52.5459 9.70947 52.4775 10.3657C52.2656 12.3071 52.1597 13.5137 52.1597 13.9854C52.1597 14.2451 52.2041 14.4946 52.293 14.7339C52.4639 15.2192 52.7339 15.4619 53.103 15.4619C53.5474 15.4551 53.9404 15.1885 54.2822 14.6621C54.5693 14.1973 54.8735 13.3564 55.1948 12.1396ZM50.0576 14.4058C50.1055 14.3306 50.1636 14.1836 50.2319 13.9648C50.5122 13.0352 50.7686 11.5962 51.001 9.64795C50.8301 9.56592 50.6729 9.5249 50.5293 9.5249C50.3994 9.5249 50.2695 9.54199 50.1396 9.57617C49.5107 9.76758 48.9775 10.3623 48.54 11.3604C48.1436 12.2559 47.9453 13.1479 47.9453 14.0366C47.9453 14.1665 47.9521 14.2896 47.9658 14.4058C48.0273 15.0688 48.2358 15.4004 48.5913 15.4004C48.7827 15.4004 49.0151 15.3047 49.2886 15.1133C49.6099 14.8877 49.8662 14.6519 50.0576 14.4058Z"/>
<path d="M62.0137 13.7803C62.0137 13.5479 62.0273 13.3018 62.0547 13.042C62.1982 11.8662 62.5674 10.8237 63.1621 9.91455C63.8867 8.80713 64.7583 8.25342 65.7769 8.25342C66.2144 8.25342 66.5972 8.33887 66.9253 8.50977C67.062 8.3457 67.25 8.26025 67.4893 8.25342C67.626 8.25342 67.7114 8.26367 67.7456 8.28418C68.0396 8.37988 68.1865 8.67041 68.1865 9.15576C68.1865 9.354 68.1523 9.78125 68.084 10.4375C67.8721 12.3789 67.7661 13.5854 67.7661 14.0571C67.7661 14.3716 67.8311 14.6655 67.9609 14.939C68.1523 15.3491 68.4053 15.5542 68.7197 15.5542C68.7812 15.5542 68.8462 15.5474 68.9146 15.5337C69.1196 15.4927 69.4136 15.3354 69.7964 15.062C70.1724 14.7886 70.4731 14.6519 70.6987 14.6519C70.7876 14.6519 70.8799 14.6826 70.9756 14.7441C71.1738 14.8809 71.2729 15.062 71.2729 15.2876C71.2524 15.6431 70.9824 16.0122 70.4629 16.395C69.8408 16.8325 69.1812 17.0513 68.4839 17.0513C67.6226 17.0444 66.9868 16.6104 66.5767 15.749C66.481 15.8652 66.3716 15.9814 66.2485 16.0977C65.5718 16.7334 64.8848 17.0513 64.1875 17.0513C63.75 17.0513 63.3706 16.9385 63.0493 16.7129C62.3589 16.207 62.0137 15.2295 62.0137 13.7803ZM66.5254 10.4067C66.5254 10.4067 66.5493 10.1743 66.5972 9.70947C66.4468 9.63428 66.2896 9.59668 66.1255 9.59668C66.0024 9.59668 65.876 9.61377 65.7461 9.64795C65.1104 9.82568 64.5737 10.4136 64.1362 11.4116C63.7466 12.3071 63.5518 13.2061 63.5518 14.1084C63.5518 14.1426 63.5518 14.1768 63.5518 14.2109C63.5723 15.0449 63.7842 15.4619 64.1875 15.4619C64.3994 15.4551 64.6592 15.3389 64.9668 15.1133C65.2812 14.8877 65.5103 14.6758 65.6538 14.4775C65.7427 14.3477 65.8623 13.9683 66.0127 13.3394C66.2861 12.1704 66.457 11.1929 66.5254 10.4067Z"/>
<path d="M81.7319 1.08594C81.9849 1.05176 82.3369 1.03467 82.7881 1.03467C83.9639 1.03467 84.9961 1.22949 85.8848 1.61914C87.8672 2.48047 88.8584 4.20312 88.8584 6.78711C88.8584 7.33398 88.8345 7.86719 88.7866 8.38672C88.479 11.6953 87.2246 14.0811 85.0234 15.5439C83.5605 16.5146 81.8447 17 79.876 17C79.7188 17 79.5786 16.959 79.4556 16.877C79.1821 16.6992 79.0454 16.4087 79.0454 16.0054C79.0454 15.8687 79.6675 11.1621 80.9116 1.88574C80.9185 1.77637 80.9424 1.67383 80.9834 1.57812C81.127 1.26367 81.3765 1.09961 81.7319 1.08594ZM87.2485 6.85889C87.2485 5.81299 87.0366 4.94482 86.6128 4.25439C85.9497 3.17432 84.856 2.63428 83.3315 2.63428C83.0581 2.63428 82.7573 2.6582 82.4292 2.70605L80.8398 15.2363C80.9424 15.2295 81.0518 15.2227 81.168 15.2158C82.4326 15.0928 83.5537 14.6382 84.5312 13.8521C86.3428 12.396 87.2485 10.0649 87.2485 6.85889Z"/>
<path d="M90.5093 13.8623C90.5093 13.6299 90.5229 13.3838 90.5503 13.124C90.6938 11.9551 91.063 10.916 91.6577 10.0068C92.3823 8.89258 93.2539 8.33545 94.2725 8.33545C94.5459 8.33545 94.8091 8.36963 95.062 8.43799C95.9644 8.69775 96.4155 9.3335 96.4155 10.3452C96.4155 10.4204 96.4121 10.499 96.4053 10.5811C96.3369 11.4971 95.9268 12.2661 95.1748 12.8882C94.4365 13.5034 93.5786 13.811 92.6011 13.811C92.4165 13.811 92.2354 13.7939 92.0576 13.7598C92.0439 13.8623 92.0371 14.0059 92.0371 14.1904C92.0371 14.5869 92.1055 14.8945 92.2422 15.1133C92.4268 15.3936 92.8062 15.5576 93.3804 15.6055C93.6333 15.6055 93.8828 15.5781 94.1289 15.5234C94.5596 15.4209 95.0688 15.1782 95.6567 14.7954C96.0396 14.5425 96.3096 14.416 96.4668 14.416C96.5557 14.416 96.6479 14.4434 96.7437 14.498C96.9624 14.6279 97.0718 14.8159 97.0718 15.062C97.0718 15.144 97.0547 15.2329 97.0205 15.3286C96.8359 15.7729 96.2822 16.1934 95.3594 16.5898C94.5049 16.959 93.7529 17.1436 93.1035 17.1436C92.8574 17.1436 92.6284 17.123 92.4165 17.082C91.145 16.8223 90.5093 15.749 90.5093 13.8623ZM93.8008 9.94531C93.1787 10.3623 92.6899 11.1553 92.3345 12.3242C92.5054 12.3652 92.6694 12.3857 92.8267 12.3857C93.394 12.3857 93.8896 12.2114 94.3135 11.8628C94.7852 11.48 95.021 11.0254 95.021 10.499C95.021 9.97266 94.8535 9.70605 94.5186 9.69922C94.2793 9.70605 94.04 9.78809 93.8008 9.94531Z"/>
<path d="M101.532 17C99.8848 16.9316 98.6646 15.9268 97.8716 13.9854C97.2837 12.5225 96.9897 10.7314 96.9897 8.6123C96.9897 8.50293 96.9966 8.36279 97.0103 8.19189C97.106 6.74951 97.3726 5.42676 97.8101 4.22363C98.521 2.28223 99.5259 1.31152 100.825 1.31152C100.893 1.31152 100.965 1.31494 101.04 1.32178C102.223 1.39697 102.814 2.08398 102.814 3.38281C102.814 4.79785 102.206 6.37012 100.989 8.09961C100.216 9.2002 99.4062 10.0923 98.5586 10.7759C98.791 12.0747 99.0474 13.0488 99.3276 13.6982C99.8472 14.9014 100.62 15.5029 101.645 15.5029C101.713 15.5029 101.785 15.4961 101.86 15.4824C102.086 15.4414 102.4 15.2773 102.804 14.9902C103.193 14.7236 103.498 14.5903 103.716 14.5903C103.812 14.5903 103.904 14.6211 103.993 14.6826C104.191 14.8193 104.291 15.0039 104.291 15.2363C104.277 15.5918 104.024 15.9575 103.532 16.3335C102.917 16.7778 102.25 17 101.532 17ZM100.835 2.85986C100.432 2.8667 100.076 3.04102 99.7686 3.38281C98.9893 4.26465 98.562 6.10693 98.4868 8.90967C98.897 8.49268 99.3071 8.00049 99.7173 7.43311C100.852 5.88135 101.419 4.57227 101.419 3.50586C101.419 3.45117 101.406 3.38623 101.378 3.31104C101.269 3.01025 101.088 2.85986 100.835 2.85986Z"/>
</mask>
<path d="M26.3926 11.2324C26.373 15.8809 24.5859 19.8262 21.0312 23.0684C17.6719 26.1152 13.1797 28.2344 7.55469 29.4258L5.41602 45.5977C5.39648 45.7148 5.37695 45.832 5.35742 45.9492C5.06445 47.3164 4.29297 48 3.04297 48C2.57422 48 2.16406 47.8828 1.8125 47.6484C1.03125 47.1406 0.640625 46.3105 0.640625 45.1582C0.640625 45.0215 2.41797 31.5742 5.97266 4.81641C6.01172 4.48438 6.10938 4.16211 6.26562 3.84961C6.75391 2.93164 7.51562 2.47266 8.55078 2.47266C10.3477 2.14062 12.2715 1.97461 14.3223 1.97461C16.4512 1.97461 18.3555 2.23828 20.0352 2.76562C24.2734 4.11328 26.3926 6.93555 26.3926 11.2324ZM21.998 11.4961C21.998 11.3984 21.998 11.291 21.998 11.1738C21.8223 7.9707 19.3027 6.36914 14.4395 6.36914C13.1113 6.36914 11.7637 6.4668 10.3965 6.66211C10.2793 7.77539 9.54688 13.6055 8.19922 24.1523C10.9336 23.7422 13.5117 22.7949 15.9336 21.3105C19.9766 18.8301 21.998 15.5586 21.998 11.4961Z" fill="white"/>
<path d="M33.5771 27.9438C33.5771 28.4442 33.4909 29.5225 33.3184 31.1787C32.7835 36.0785 32.5161 39.1235 32.5161 40.314C32.5161 41.1076 32.68 41.8494 33.0078 42.5396C33.4909 43.5747 34.1379 44.0923 34.9487 44.0923C35.1213 44.0923 35.3024 44.075 35.4922 44.0405C35.9925 43.9198 36.7171 43.5143 37.666 42.8242C38.5977 42.1341 39.3481 41.7891 39.9175 41.7891C40.159 41.7891 40.4006 41.8753 40.6421 42.0479C41.1252 42.3929 41.3667 42.8501 41.3667 43.4194C41.2977 44.2993 40.6162 45.231 39.3223 46.2144C37.735 47.3185 36.0701 47.8706 34.3276 47.8706C32.8612 47.8706 31.6449 47.3617 30.6787 46.3438C29.2295 44.791 28.5049 42.3239 28.5049 38.9424C28.5049 37.7865 28.7378 35.5264 29.2036 32.1621C29.4106 30.5921 29.5573 29.4362 29.6436 28.6943C29.6608 28.5391 29.6781 28.3838 29.6953 28.2285C29.9714 26.5033 30.6787 25.6406 31.8174 25.6406C32.0072 25.6406 32.1969 25.6579 32.3867 25.6924C33.1803 25.8822 33.5771 26.6326 33.5771 27.9438ZM30.627 21.1636C30.627 20.853 30.696 20.5597 30.834 20.2837C31.179 19.6108 31.7397 19.2744 32.5161 19.2744C32.8267 19.2744 33.12 19.3434 33.396 19.4814C34.0688 19.8265 34.4053 20.3872 34.4053 21.1636C34.4053 21.4741 34.3363 21.7674 34.1982 22.0435C33.8532 22.7163 33.2925 23.0527 32.5161 23.0527C32.2056 23.0527 31.9123 22.9837 31.6362 22.8457C30.9634 22.5007 30.627 21.9399 30.627 21.1636Z" fill="white"/>
<path d="M42.6606 44.5581C42.6606 44.5581 46.3786 39.5635 53.8145 29.5742H45.4297C44.8604 29.5742 44.3859 29.5397 44.0063 29.4707C42.9884 29.2637 42.4795 28.6771 42.4795 27.7109C42.4795 27.6074 42.4967 27.4953 42.5312 27.3745C42.7728 26.4601 43.6009 26.0029 45.0156 26.0029H57.1787C57.4202 26.0029 57.6445 26.0374 57.8516 26.1064C58.6279 26.3307 59.0161 26.9259 59.0161 27.8921C59.0161 28.1509 58.9299 28.4614 58.7573 28.8237C58.6021 29.0998 57.4634 30.687 55.3413 33.5854C52.4946 37.5018 49.8464 41.1507 47.3965 44.5322H57.334C58.5417 44.5495 59.1628 45.1188 59.1973 46.2402C59.1973 46.5163 59.1455 46.7664 59.042 46.9907C58.7314 47.6636 57.7826 48 56.1953 48H43.7476C43.4888 48 43.23 47.9396 42.9712 47.8188C42.2638 47.4738 41.9102 46.9303 41.9102 46.1885C41.9102 46.1367 41.9102 46.085 41.9102 46.0332C41.9447 45.7744 42.1948 45.2827 42.6606 44.5581Z" fill="white"/>
<path d="M64.2954 44.5581C64.2954 44.5581 68.0133 39.5635 75.4492 29.5742H67.0645C66.4951 29.5742 66.0207 29.5397 65.6411 29.4707C64.6232 29.2637 64.1143 28.6771 64.1143 27.7109C64.1143 27.6074 64.1315 27.4953 64.166 27.3745C64.4076 26.4601 65.2357 26.0029 66.6504 26.0029H78.8135C79.055 26.0029 79.2793 26.0374 79.4863 26.1064C80.2627 26.3307 80.6509 26.9259 80.6509 27.8921C80.6509 28.1509 80.5646 28.4614 80.3921 28.8237C80.2368 29.0998 79.0981 30.687 76.9761 33.5854C74.1294 37.5018 71.4811 41.1507 69.0312 44.5322H78.9688C80.1764 44.5495 80.7975 45.1188 80.832 46.2402C80.832 46.5163 80.7803 46.7664 80.6768 46.9907C80.3662 47.6636 79.4173 48 77.8301 48H65.3823C65.1235 48 64.8647 47.9396 64.606 47.8188C63.8986 47.4738 63.5449 46.9303 63.5449 46.1885C63.5449 46.1367 63.5449 46.085 63.5449 46.0332C63.5794 45.7744 63.8296 45.2827 64.2954 44.5581Z" fill="white"/>
<path d="M81.2979 39.874C81.2979 39.2874 81.3324 38.6663 81.4014 38.0107C81.7637 35.0433 82.6953 32.4123 84.1963 30.1177C86.0251 27.3228 88.2248 25.9253 90.7954 25.9253C91.8996 25.9253 92.8657 26.141 93.6938 26.5723C94.0389 26.1582 94.5133 25.9425 95.1172 25.9253C95.4622 25.9253 95.6779 25.9512 95.7642 26.0029C96.506 26.2445 96.877 26.9777 96.877 28.2026C96.877 28.703 96.7907 29.7812 96.6182 31.4375C96.0833 36.3372 95.8159 39.3823 95.8159 40.5728C95.8159 41.3664 95.9798 42.1082 96.3076 42.7983C96.7907 43.8335 97.429 44.3511 98.2227 44.3511C98.3779 44.3511 98.5418 44.3338 98.7144 44.2993C99.2319 44.1958 99.9738 43.799 100.94 43.1089C101.889 42.4188 102.648 42.0737 103.217 42.0737C103.442 42.0737 103.674 42.1514 103.916 42.3066C104.416 42.6517 104.667 43.1089 104.667 43.6782C104.615 44.5754 103.933 45.507 102.622 46.4731C101.052 47.5773 99.3872 48.1294 97.6274 48.1294C95.4536 48.1121 93.8491 47.0166 92.814 44.8428C92.5724 45.1361 92.2964 45.4294 91.9858 45.7227C90.2778 47.3271 88.5439 48.1294 86.7842 48.1294C85.68 48.1294 84.7225 47.8447 83.9116 47.2754C82.1691 45.9987 81.2979 43.5316 81.2979 39.874ZM92.6846 31.3599C92.6846 31.3599 92.745 30.7733 92.8657 29.6001C92.4862 29.4103 92.0894 29.3154 91.6753 29.3154C91.3647 29.3154 91.0456 29.3586 90.7178 29.4448C89.1133 29.8934 87.759 31.3771 86.6548 33.896C85.6714 36.1561 85.1797 38.4248 85.1797 40.7021C85.1797 40.7884 85.1797 40.8747 85.1797 40.9609C85.2314 43.0658 85.7663 44.1182 86.7842 44.1182C87.319 44.1009 87.9746 43.8076 88.751 43.2383C89.5446 42.6689 90.1226 42.1341 90.4849 41.6338C90.7091 41.306 91.0111 40.3485 91.3906 38.7612C92.0807 35.811 92.512 33.3439 92.6846 31.3599Z" fill="white"/>
<path d="M42.8184 4.74658C42.668 4.37744 42.4834 4.04248 42.2646 3.7417C41.7314 3.0376 41.1436 2.68555 40.501 2.68555C40.084 2.68555 39.6636 2.83936 39.2397 3.14697C38.4331 3.72119 37.7393 4.71924 37.1582 6.14111C36.5498 7.604 36.2456 9.03955 36.2456 10.4478C36.2456 11.8013 36.4644 12.9292 36.9019 13.8315C37.3872 14.8296 38.0503 15.3286 38.8911 15.3286C39.2808 15.3286 39.7148 15.1509 40.1934 14.7954C40.9453 14.228 41.5913 13.4043 42.1313 12.3242C42.145 12.2832 42.1655 12.2422 42.1929 12.2012C42.3501 11.9346 42.5791 11.8013 42.8799 11.8013C43.0234 11.8013 43.1602 11.8354 43.29 11.9038C43.5635 12.061 43.7002 12.3003 43.7002 12.6216C43.7002 12.7378 43.666 12.8711 43.5977 13.0215C43.1602 13.9512 42.6338 14.7407 42.0186 15.3901C40.9932 16.4634 39.8926 17 38.7168 17C38.5664 17 38.416 16.9897 38.2656 16.9692C37.2129 16.8188 36.3413 16.1934 35.6509 15.0928C34.8853 13.8691 34.5024 12.3379 34.5024 10.499C34.5024 9.40527 34.6597 8.29785 34.9741 7.17676C35.4663 5.41309 36.2251 3.9502 37.2505 2.78809C38.3237 1.58496 39.4585 0.983398 40.6548 0.983398C41.1675 0.983398 41.6562 1.09619 42.1211 1.32178C43.1055 1.81396 43.8438 2.74023 44.3359 4.10059C44.3906 4.23047 44.418 4.35693 44.418 4.47998C44.418 4.62354 44.3804 4.76025 44.3052 4.89014C44.1411 5.16357 43.9053 5.30029 43.5977 5.30029C43.2832 5.27979 43.0234 5.09521 42.8184 4.74658Z" fill="white"/>
<path d="M55.1948 12.1396C55.1948 12.1396 55.4683 11.0527 56.0151 8.87891C56.1587 8.52344 56.4116 8.34229 56.7739 8.33545C56.9106 8.34229 57.0474 8.35596 57.1841 8.37646C58.3325 8.56104 59.2656 9.14551 59.9834 10.1299C60.6533 11.0527 60.9883 12.1055 60.9883 13.2881C60.9746 14.0195 60.8037 14.7646 60.4756 15.5234C60.0996 16.3506 59.6587 16.7642 59.1528 16.7642C59.0161 16.7642 58.8862 16.7061 58.7632 16.5898C58.5854 16.4189 58.4966 16.231 58.4966 16.0259C58.4966 15.937 58.5137 15.8447 58.5479 15.749C58.5479 15.749 58.5889 15.6738 58.6709 15.5234C59.1631 14.7373 59.4126 13.9409 59.4194 13.1343C59.4194 13.0386 59.416 12.9429 59.4092 12.8472C59.3408 11.9653 58.9956 11.2168 58.3735 10.6016C57.9771 10.1914 57.6147 9.98291 57.2866 9.97607C57.2183 10.2358 57.1055 10.7075 56.9482 11.3911C56.5996 12.9224 56.2646 14.0366 55.9434 14.7339C55.2393 16.231 54.2173 16.9795 52.8774 16.9795C52.0161 16.9727 51.3872 16.5386 50.9907 15.6772C50.9019 15.7798 50.7993 15.8857 50.6831 15.9951C49.9927 16.6514 49.2954 16.9795 48.5913 16.9795C48.1538 16.9795 47.7778 16.8667 47.4634 16.6411C46.7593 16.1421 46.4072 15.1646 46.4072 13.7085C46.4072 13.4761 46.4209 13.23 46.4482 12.9702C46.5918 11.8013 46.9609 10.7622 47.5557 9.85303C48.2871 8.73877 49.1621 8.18164 50.1807 8.18164C50.625 8.18164 51.0112 8.26709 51.3394 8.43799C51.4761 8.27393 51.6572 8.18848 51.8828 8.18164C51.9717 8.18164 52.0571 8.19189 52.1392 8.2124C52.4331 8.29443 52.5801 8.58496 52.5801 9.08398C52.5801 9.28223 52.5459 9.70947 52.4775 10.3657C52.2656 12.3071 52.1597 13.5137 52.1597 13.9854C52.1597 14.2451 52.2041 14.4946 52.293 14.7339C52.4639 15.2192 52.7339 15.4619 53.103 15.4619C53.5474 15.4551 53.9404 15.1885 54.2822 14.6621C54.5693 14.1973 54.8735 13.3564 55.1948 12.1396ZM50.0576 14.4058C50.1055 14.3306 50.1636 14.1836 50.2319 13.9648C50.5122 13.0352 50.7686 11.5962 51.001 9.64795C50.8301 9.56592 50.6729 9.5249 50.5293 9.5249C50.3994 9.5249 50.2695 9.54199 50.1396 9.57617C49.5107 9.76758 48.9775 10.3623 48.54 11.3604C48.1436 12.2559 47.9453 13.1479 47.9453 14.0366C47.9453 14.1665 47.9521 14.2896 47.9658 14.4058C48.0273 15.0688 48.2358 15.4004 48.5913 15.4004C48.7827 15.4004 49.0151 15.3047 49.2886 15.1133C49.6099 14.8877 49.8662 14.6519 50.0576 14.4058Z" fill="white"/>
<path d="M62.0137 13.7803C62.0137 13.5479 62.0273 13.3018 62.0547 13.042C62.1982 11.8662 62.5674 10.8237 63.1621 9.91455C63.8867 8.80713 64.7583 8.25342 65.7769 8.25342C66.2144 8.25342 66.5972 8.33887 66.9253 8.50977C67.062 8.3457 67.25 8.26025 67.4893 8.25342C67.626 8.25342 67.7114 8.26367 67.7456 8.28418C68.0396 8.37988 68.1865 8.67041 68.1865 9.15576C68.1865 9.354 68.1523 9.78125 68.084 10.4375C67.8721 12.3789 67.7661 13.5854 67.7661 14.0571C67.7661 14.3716 67.8311 14.6655 67.9609 14.939C68.1523 15.3491 68.4053 15.5542 68.7197 15.5542C68.7812 15.5542 68.8462 15.5474 68.9146 15.5337C69.1196 15.4927 69.4136 15.3354 69.7964 15.062C70.1724 14.7886 70.4731 14.6519 70.6987 14.6519C70.7876 14.6519 70.8799 14.6826 70.9756 14.7441C71.1738 14.8809 71.2729 15.062 71.2729 15.2876C71.2524 15.6431 70.9824 16.0122 70.4629 16.395C69.8408 16.8325 69.1812 17.0513 68.4839 17.0513C67.6226 17.0444 66.9868 16.6104 66.5767 15.749C66.481 15.8652 66.3716 15.9814 66.2485 16.0977C65.5718 16.7334 64.8848 17.0513 64.1875 17.0513C63.75 17.0513 63.3706 16.9385 63.0493 16.7129C62.3589 16.207 62.0137 15.2295 62.0137 13.7803ZM66.5254 10.4067C66.5254 10.4067 66.5493 10.1743 66.5972 9.70947C66.4468 9.63428 66.2896 9.59668 66.1255 9.59668C66.0024 9.59668 65.876 9.61377 65.7461 9.64795C65.1104 9.82568 64.5737 10.4136 64.1362 11.4116C63.7466 12.3071 63.5518 13.2061 63.5518 14.1084C63.5518 14.1426 63.5518 14.1768 63.5518 14.2109C63.5723 15.0449 63.7842 15.4619 64.1875 15.4619C64.3994 15.4551 64.6592 15.3389 64.9668 15.1133C65.2812 14.8877 65.5103 14.6758 65.6538 14.4775C65.7427 14.3477 65.8623 13.9683 66.0127 13.3394C66.2861 12.1704 66.457 11.1929 66.5254 10.4067Z" fill="white"/>
<path d="M81.7319 1.08594C81.9849 1.05176 82.3369 1.03467 82.7881 1.03467C83.9639 1.03467 84.9961 1.22949 85.8848 1.61914C87.8672 2.48047 88.8584 4.20312 88.8584 6.78711C88.8584 7.33398 88.8345 7.86719 88.7866 8.38672C88.479 11.6953 87.2246 14.0811 85.0234 15.5439C83.5605 16.5146 81.8447 17 79.876 17C79.7188 17 79.5786 16.959 79.4556 16.877C79.1821 16.6992 79.0454 16.4087 79.0454 16.0054C79.0454 15.8687 79.6675 11.1621 80.9116 1.88574C80.9185 1.77637 80.9424 1.67383 80.9834 1.57812C81.127 1.26367 81.3765 1.09961 81.7319 1.08594ZM87.2485 6.85889C87.2485 5.81299 87.0366 4.94482 86.6128 4.25439C85.9497 3.17432 84.856 2.63428 83.3315 2.63428C83.0581 2.63428 82.7573 2.6582 82.4292 2.70605L80.8398 15.2363C80.9424 15.2295 81.0518 15.2227 81.168 15.2158C82.4326 15.0928 83.5537 14.6382 84.5312 13.8521C86.3428 12.396 87.2485 10.0649 87.2485 6.85889Z" fill="white"/>
<path d="M90.5093 13.8623C90.5093 13.6299 90.5229 13.3838 90.5503 13.124C90.6938 11.9551 91.063 10.916 91.6577 10.0068C92.3823 8.89258 93.2539 8.33545 94.2725 8.33545C94.5459 8.33545 94.8091 8.36963 95.062 8.43799C95.9644 8.69775 96.4155 9.3335 96.4155 10.3452C96.4155 10.4204 96.4121 10.499 96.4053 10.5811C96.3369 11.4971 95.9268 12.2661 95.1748 12.8882C94.4365 13.5034 93.5786 13.811 92.6011 13.811C92.4165 13.811 92.2354 13.7939 92.0576 13.7598C92.0439 13.8623 92.0371 14.0059 92.0371 14.1904C92.0371 14.5869 92.1055 14.8945 92.2422 15.1133C92.4268 15.3936 92.8062 15.5576 93.3804 15.6055C93.6333 15.6055 93.8828 15.5781 94.1289 15.5234C94.5596 15.4209 95.0688 15.1782 95.6567 14.7954C96.0396 14.5425 96.3096 14.416 96.4668 14.416C96.5557 14.416 96.6479 14.4434 96.7437 14.498C96.9624 14.6279 97.0718 14.8159 97.0718 15.062C97.0718 15.144 97.0547 15.2329 97.0205 15.3286C96.8359 15.7729 96.2822 16.1934 95.3594 16.5898C94.5049 16.959 93.7529 17.1436 93.1035 17.1436C92.8574 17.1436 92.6284 17.123 92.4165 17.082C91.145 16.8223 90.5093 15.749 90.5093 13.8623ZM93.8008 9.94531C93.1787 10.3623 92.6899 11.1553 92.3345 12.3242C92.5054 12.3652 92.6694 12.3857 92.8267 12.3857C93.394 12.3857 93.8896 12.2114 94.3135 11.8628C94.7852 11.48 95.021 11.0254 95.021 10.499C95.021 9.97266 94.8535 9.70605 94.5186 9.69922C94.2793 9.70605 94.04 9.78809 93.8008 9.94531Z" fill="white"/>
<path d="M101.532 17C99.8848 16.9316 98.6646 15.9268 97.8716 13.9854C97.2837 12.5225 96.9897 10.7314 96.9897 8.6123C96.9897 8.50293 96.9966 8.36279 97.0103 8.19189C97.106 6.74951 97.3726 5.42676 97.8101 4.22363C98.521 2.28223 99.5259 1.31152 100.825 1.31152C100.893 1.31152 100.965 1.31494 101.04 1.32178C102.223 1.39697 102.814 2.08398 102.814 3.38281C102.814 4.79785 102.206 6.37012 100.989 8.09961C100.216 9.2002 99.4062 10.0923 98.5586 10.7759C98.791 12.0747 99.0474 13.0488 99.3276 13.6982C99.8472 14.9014 100.62 15.5029 101.645 15.5029C101.713 15.5029 101.785 15.4961 101.86 15.4824C102.086 15.4414 102.4 15.2773 102.804 14.9902C103.193 14.7236 103.498 14.5903 103.716 14.5903C103.812 14.5903 103.904 14.6211 103.993 14.6826C104.191 14.8193 104.291 15.0039 104.291 15.2363C104.277 15.5918 104.024 15.9575 103.532 16.3335C102.917 16.7778 102.25 17 101.532 17ZM100.835 2.85986C100.432 2.8667 100.076 3.04102 99.7686 3.38281C98.9893 4.26465 98.562 6.10693 98.4868 8.90967C98.897 8.49268 99.3071 8.00049 99.7173 7.43311C100.852 5.88135 101.419 4.57227 101.419 3.50586C101.419 3.45117 101.406 3.38623 101.378 3.31104C101.269 3.01025 101.088 2.85986 100.835 2.85986Z" fill="white"/>
<path d="M26.3926 11.2324C26.373 15.8809 24.5859 19.8262 21.0312 23.0684C17.6719 26.1152 13.1797 28.2344 7.55469 29.4258L5.41602 45.5977C5.39648 45.7148 5.37695 45.832 5.35742 45.9492C5.06445 47.3164 4.29297 48 3.04297 48C2.57422 48 2.16406 47.8828 1.8125 47.6484C1.03125 47.1406 0.640625 46.3105 0.640625 45.1582C0.640625 45.0215 2.41797 31.5742 5.97266 4.81641C6.01172 4.48438 6.10938 4.16211 6.26562 3.84961C6.75391 2.93164 7.51562 2.47266 8.55078 2.47266C10.3477 2.14062 12.2715 1.97461 14.3223 1.97461C16.4512 1.97461 18.3555 2.23828 20.0352 2.76562C24.2734 4.11328 26.3926 6.93555 26.3926 11.2324ZM21.998 11.4961C21.998 11.3984 21.998 11.291 21.998 11.1738C21.8223 7.9707 19.3027 6.36914 14.4395 6.36914C13.1113 6.36914 11.7637 6.4668 10.3965 6.66211C10.2793 7.77539 9.54688 13.6055 8.19922 24.1523C10.9336 23.7422 13.5117 22.7949 15.9336 21.3105C19.9766 18.8301 21.998 15.5586 21.998 11.4961Z" stroke="white" mask="url(#path-1-outside-1_129_101)"/>
<path d="M33.5771 27.9438C33.5771 28.4442 33.4909 29.5225 33.3184 31.1787C32.7835 36.0785 32.5161 39.1235 32.5161 40.314C32.5161 41.1076 32.68 41.8494 33.0078 42.5396C33.4909 43.5747 34.1379 44.0923 34.9487 44.0923C35.1213 44.0923 35.3024 44.075 35.4922 44.0405C35.9925 43.9198 36.7171 43.5143 37.666 42.8242C38.5977 42.1341 39.3481 41.7891 39.9175 41.7891C40.159 41.7891 40.4006 41.8753 40.6421 42.0479C41.1252 42.3929 41.3667 42.8501 41.3667 43.4194C41.2977 44.2993 40.6162 45.231 39.3223 46.2144C37.735 47.3185 36.0701 47.8706 34.3276 47.8706C32.8612 47.8706 31.6449 47.3617 30.6787 46.3438C29.2295 44.791 28.5049 42.3239 28.5049 38.9424C28.5049 37.7865 28.7378 35.5264 29.2036 32.1621C29.4106 30.5921 29.5573 29.4362 29.6436 28.6943C29.6608 28.5391 29.6781 28.3838 29.6953 28.2285C29.9714 26.5033 30.6787 25.6406 31.8174 25.6406C32.0072 25.6406 32.1969 25.6579 32.3867 25.6924C33.1803 25.8822 33.5771 26.6326 33.5771 27.9438ZM30.627 21.1636C30.627 20.853 30.696 20.5597 30.834 20.2837C31.179 19.6108 31.7397 19.2744 32.5161 19.2744C32.8267 19.2744 33.12 19.3434 33.396 19.4814C34.0688 19.8265 34.4053 20.3872 34.4053 21.1636C34.4053 21.4741 34.3363 21.7674 34.1982 22.0435C33.8532 22.7163 33.2925 23.0527 32.5161 23.0527C32.2056 23.0527 31.9123 22.9837 31.6362 22.8457C30.9634 22.5007 30.627 21.9399 30.627 21.1636Z" stroke="white" mask="url(#path-1-outside-1_129_101)"/>
<path d="M42.6606 44.5581C42.6606 44.5581 46.3786 39.5635 53.8145 29.5742H45.4297C44.8604 29.5742 44.3859 29.5397 44.0063 29.4707C42.9884 29.2637 42.4795 28.6771 42.4795 27.7109C42.4795 27.6074 42.4967 27.4953 42.5312 27.3745C42.7728 26.4601 43.6009 26.0029 45.0156 26.0029H57.1787C57.4202 26.0029 57.6445 26.0374 57.8516 26.1064C58.6279 26.3307 59.0161 26.9259 59.0161 27.8921C59.0161 28.1509 58.9299 28.4614 58.7573 28.8237C58.6021 29.0998 57.4634 30.687 55.3413 33.5854C52.4946 37.5018 49.8464 41.1507 47.3965 44.5322H57.334C58.5417 44.5495 59.1628 45.1188 59.1973 46.2402C59.1973 46.5163 59.1455 46.7664 59.042 46.9907C58.7314 47.6636 57.7826 48 56.1953 48H43.7476C43.4888 48 43.23 47.9396 42.9712 47.8188C42.2638 47.4738 41.9102 46.9303 41.9102 46.1885C41.9102 46.1367 41.9102 46.085 41.9102 46.0332C41.9447 45.7744 42.1948 45.2827 42.6606 44.5581Z" stroke="white" mask="url(#path-1-outside-1_129_101)"/>
<path d="M64.2954 44.5581C64.2954 44.5581 68.0133 39.5635 75.4492 29.5742H67.0645C66.4951 29.5742 66.0207 29.5397 65.6411 29.4707C64.6232 29.2637 64.1143 28.6771 64.1143 27.7109C64.1143 27.6074 64.1315 27.4953 64.166 27.3745C64.4076 26.4601 65.2357 26.0029 66.6504 26.0029H78.8135C79.055 26.0029 79.2793 26.0374 79.4863 26.1064C80.2627 26.3307 80.6509 26.9259 80.6509 27.8921C80.6509 28.1509 80.5646 28.4614 80.3921 28.8237C80.2368 29.0998 79.0981 30.687 76.9761 33.5854C74.1294 37.5018 71.4811 41.1507 69.0312 44.5322H78.9688C80.1764 44.5495 80.7975 45.1188 80.832 46.2402C80.832 46.5163 80.7803 46.7664 80.6768 46.9907C80.3662 47.6636 79.4173 48 77.8301 48H65.3823C65.1235 48 64.8647 47.9396 64.606 47.8188C63.8986 47.4738 63.5449 46.9303 63.5449 46.1885C63.5449 46.1367 63.5449 46.085 63.5449 46.0332C63.5794 45.7744 63.8296 45.2827 64.2954 44.5581Z" stroke="white" mask="url(#path-1-outside-1_129_101)"/>
<path d="M81.2979 39.874C81.2979 39.2874 81.3324 38.6663 81.4014 38.0107C81.7637 35.0433 82.6953 32.4123 84.1963 30.1177C86.0251 27.3228 88.2248 25.9253 90.7954 25.9253C91.8996 25.9253 92.8657 26.141 93.6938 26.5723C94.0389 26.1582 94.5133 25.9425 95.1172 25.9253C95.4622 25.9253 95.6779 25.9512 95.7642 26.0029C96.506 26.2445 96.877 26.9777 96.877 28.2026C96.877 28.703 96.7907 29.7812 96.6182 31.4375C96.0833 36.3372 95.8159 39.3823 95.8159 40.5728C95.8159 41.3664 95.9798 42.1082 96.3076 42.7983C96.7907 43.8335 97.429 44.3511 98.2227 44.3511C98.3779 44.3511 98.5418 44.3338 98.7144 44.2993C99.2319 44.1958 99.9738 43.799 100.94 43.1089C101.889 42.4188 102.648 42.0737 103.217 42.0737C103.442 42.0737 103.674 42.1514 103.916 42.3066C104.416 42.6517 104.667 43.1089 104.667 43.6782C104.615 44.5754 103.933 45.507 102.622 46.4731C101.052 47.5773 99.3872 48.1294 97.6274 48.1294C95.4536 48.1121 93.8491 47.0166 92.814 44.8428C92.5724 45.1361 92.2964 45.4294 91.9858 45.7227C90.2778 47.3271 88.5439 48.1294 86.7842 48.1294C85.68 48.1294 84.7225 47.8447 83.9116 47.2754C82.1691 45.9987 81.2979 43.5316 81.2979 39.874ZM92.6846 31.3599C92.6846 31.3599 92.745 30.7733 92.8657 29.6001C92.4862 29.4103 92.0894 29.3154 91.6753 29.3154C91.3647 29.3154 91.0456 29.3586 90.7178 29.4448C89.1133 29.8934 87.759 31.3771 86.6548 33.896C85.6714 36.1561 85.1797 38.4248 85.1797 40.7021C85.1797 40.7884 85.1797 40.8747 85.1797 40.9609C85.2314 43.0658 85.7663 44.1182 86.7842 44.1182C87.319 44.1009 87.9746 43.8076 88.751 43.2383C89.5446 42.6689 90.1226 42.1341 90.4849 41.6338C90.7091 41.306 91.0111 40.3485 91.3906 38.7612C92.0807 35.811 92.512 33.3439 92.6846 31.3599Z" stroke="white" mask="url(#path-1-outside-1_129_101)"/>
<path d="M42.8184 4.74658C42.668 4.37744 42.4834 4.04248 42.2646 3.7417C41.7314 3.0376 41.1436 2.68555 40.501 2.68555C40.084 2.68555 39.6636 2.83936 39.2397 3.14697C38.4331 3.72119 37.7393 4.71924 37.1582 6.14111C36.5498 7.604 36.2456 9.03955 36.2456 10.4478C36.2456 11.8013 36.4644 12.9292 36.9019 13.8315C37.3872 14.8296 38.0503 15.3286 38.8911 15.3286C39.2808 15.3286 39.7148 15.1509 40.1934 14.7954C40.9453 14.228 41.5913 13.4043 42.1313 12.3242C42.145 12.2832 42.1655 12.2422 42.1929 12.2012C42.3501 11.9346 42.5791 11.8013 42.8799 11.8013C43.0234 11.8013 43.1602 11.8354 43.29 11.9038C43.5635 12.061 43.7002 12.3003 43.7002 12.6216C43.7002 12.7378 43.666 12.8711 43.5977 13.0215C43.1602 13.9512 42.6338 14.7407 42.0186 15.3901C40.9932 16.4634 39.8926 17 38.7168 17C38.5664 17 38.416 16.9897 38.2656 16.9692C37.2129 16.8188 36.3413 16.1934 35.6509 15.0928C34.8853 13.8691 34.5024 12.3379 34.5024 10.499C34.5024 9.40527 34.6597 8.29785 34.9741 7.17676C35.4663 5.41309 36.2251 3.9502 37.2505 2.78809C38.3237 1.58496 39.4585 0.983398 40.6548 0.983398C41.1675 0.983398 41.6562 1.09619 42.1211 1.32178C43.1055 1.81396 43.8438 2.74023 44.3359 4.10059C44.3906 4.23047 44.418 4.35693 44.418 4.47998C44.418 4.62354 44.3804 4.76025 44.3052 4.89014C44.1411 5.16357 43.9053 5.30029 43.5977 5.30029C43.2832 5.27979 43.0234 5.09521 42.8184 4.74658Z" stroke="white" mask="url(#path-1-outside-1_129_101)"/>
<path d="M55.1948 12.1396C55.1948 12.1396 55.4683 11.0527 56.0151 8.87891C56.1587 8.52344 56.4116 8.34229 56.7739 8.33545C56.9106 8.34229 57.0474 8.35596 57.1841 8.37646C58.3325 8.56104 59.2656 9.14551 59.9834 10.1299C60.6533 11.0527 60.9883 12.1055 60.9883 13.2881C60.9746 14.0195 60.8037 14.7646 60.4756 15.5234C60.0996 16.3506 59.6587 16.7642 59.1528 16.7642C59.0161 16.7642 58.8862 16.7061 58.7632 16.5898C58.5854 16.4189 58.4966 16.231 58.4966 16.0259C58.4966 15.937 58.5137 15.8447 58.5479 15.749C58.5479 15.749 58.5889 15.6738 58.6709 15.5234C59.1631 14.7373 59.4126 13.9409 59.4194 13.1343C59.4194 13.0386 59.416 12.9429 59.4092 12.8472C59.3408 11.9653 58.9956 11.2168 58.3735 10.6016C57.9771 10.1914 57.6147 9.98291 57.2866 9.97607C57.2183 10.2358 57.1055 10.7075 56.9482 11.3911C56.5996 12.9224 56.2646 14.0366 55.9434 14.7339C55.2393 16.231 54.2173 16.9795 52.8774 16.9795C52.0161 16.9727 51.3872 16.5386 50.9907 15.6772C50.9019 15.7798 50.7993 15.8857 50.6831 15.9951C49.9927 16.6514 49.2954 16.9795 48.5913 16.9795C48.1538 16.9795 47.7778 16.8667 47.4634 16.6411C46.7593 16.1421 46.4072 15.1646 46.4072 13.7085C46.4072 13.4761 46.4209 13.23 46.4482 12.9702C46.5918 11.8013 46.9609 10.7622 47.5557 9.85303C48.2871 8.73877 49.1621 8.18164 50.1807 8.18164C50.625 8.18164 51.0112 8.26709 51.3394 8.43799C51.4761 8.27393 51.6572 8.18848 51.8828 8.18164C51.9717 8.18164 52.0571 8.19189 52.1392 8.2124C52.4331 8.29443 52.5801 8.58496 52.5801 9.08398C52.5801 9.28223 52.5459 9.70947 52.4775 10.3657C52.2656 12.3071 52.1597 13.5137 52.1597 13.9854C52.1597 14.2451 52.2041 14.4946 52.293 14.7339C52.4639 15.2192 52.7339 15.4619 53.103 15.4619C53.5474 15.4551 53.9404 15.1885 54.2822 14.6621C54.5693 14.1973 54.8735 13.3564 55.1948 12.1396ZM50.0576 14.4058C50.1055 14.3306 50.1636 14.1836 50.2319 13.9648C50.5122 13.0352 50.7686 11.5962 51.001 9.64795C50.8301 9.56592 50.6729 9.5249 50.5293 9.5249C50.3994 9.5249 50.2695 9.54199 50.1396 9.57617C49.5107 9.76758 48.9775 10.3623 48.54 11.3604C48.1436 12.2559 47.9453 13.1479 47.9453 14.0366C47.9453 14.1665 47.9521 14.2896 47.9658 14.4058C48.0273 15.0688 48.2358 15.4004 48.5913 15.4004C48.7827 15.4004 49.0151 15.3047 49.2886 15.1133C49.6099 14.8877 49.8662 14.6519 50.0576 14.4058Z" stroke="white" mask="url(#path-1-outside-1_129_101)"/>
<path d="M62.0137 13.7803C62.0137 13.5479 62.0273 13.3018 62.0547 13.042C62.1982 11.8662 62.5674 10.8237 63.1621 9.91455C63.8867 8.80713 64.7583 8.25342 65.7769 8.25342C66.2144 8.25342 66.5972 8.33887 66.9253 8.50977C67.062 8.3457 67.25 8.26025 67.4893 8.25342C67.626 8.25342 67.7114 8.26367 67.7456 8.28418C68.0396 8.37988 68.1865 8.67041 68.1865 9.15576C68.1865 9.354 68.1523 9.78125 68.084 10.4375C67.8721 12.3789 67.7661 13.5854 67.7661 14.0571C67.7661 14.3716 67.8311 14.6655 67.9609 14.939C68.1523 15.3491 68.4053 15.5542 68.7197 15.5542C68.7812 15.5542 68.8462 15.5474 68.9146 15.5337C69.1196 15.4927 69.4136 15.3354 69.7964 15.062C70.1724 14.7886 70.4731 14.6519 70.6987 14.6519C70.7876 14.6519 70.8799 14.6826 70.9756 14.7441C71.1738 14.8809 71.2729 15.062 71.2729 15.2876C71.2524 15.6431 70.9824 16.0122 70.4629 16.395C69.8408 16.8325 69.1812 17.0513 68.4839 17.0513C67.6226 17.0444 66.9868 16.6104 66.5767 15.749C66.481 15.8652 66.3716 15.9814 66.2485 16.0977C65.5718 16.7334 64.8848 17.0513 64.1875 17.0513C63.75 17.0513 63.3706 16.9385 63.0493 16.7129C62.3589 16.207 62.0137 15.2295 62.0137 13.7803ZM66.5254 10.4067C66.5254 10.4067 66.5493 10.1743 66.5972 9.70947C66.4468 9.63428 66.2896 9.59668 66.1255 9.59668C66.0024 9.59668 65.876 9.61377 65.7461 9.64795C65.1104 9.82568 64.5737 10.4136 64.1362 11.4116C63.7466 12.3071 63.5518 13.2061 63.5518 14.1084C63.5518 14.1426 63.5518 14.1768 63.5518 14.2109C63.5723 15.0449 63.7842 15.4619 64.1875 15.4619C64.3994 15.4551 64.6592 15.3389 64.9668 15.1133C65.2812 14.8877 65.5103 14.6758 65.6538 14.4775C65.7427 14.3477 65.8623 13.9683 66.0127 13.3394C66.2861 12.1704 66.457 11.1929 66.5254 10.4067Z" stroke="white" mask="url(#path-1-outside-1_129_101)"/>
<path d="M81.7319 1.08594C81.9849 1.05176 82.3369 1.03467 82.7881 1.03467C83.9639 1.03467 84.9961 1.22949 85.8848 1.61914C87.8672 2.48047 88.8584 4.20312 88.8584 6.78711C88.8584 7.33398 88.8345 7.86719 88.7866 8.38672C88.479 11.6953 87.2246 14.0811 85.0234 15.5439C83.5605 16.5146 81.8447 17 79.876 17C79.7188 17 79.5786 16.959 79.4556 16.877C79.1821 16.6992 79.0454 16.4087 79.0454 16.0054C79.0454 15.8687 79.6675 11.1621 80.9116 1.88574C80.9185 1.77637 80.9424 1.67383 80.9834 1.57812C81.127 1.26367 81.3765 1.09961 81.7319 1.08594ZM87.2485 6.85889C87.2485 5.81299 87.0366 4.94482 86.6128 4.25439C85.9497 3.17432 84.856 2.63428 83.3315 2.63428C83.0581 2.63428 82.7573 2.6582 82.4292 2.70605L80.8398 15.2363C80.9424 15.2295 81.0518 15.2227 81.168 15.2158C82.4326 15.0928 83.5537 14.6382 84.5312 13.8521C86.3428 12.396 87.2485 10.0649 87.2485 6.85889Z" stroke="white" mask="url(#path-1-outside-1_129_101)"/>
<path d="M90.5093 13.8623C90.5093 13.6299 90.5229 13.3838 90.5503 13.124C90.6938 11.9551 91.063 10.916 91.6577 10.0068C92.3823 8.89258 93.2539 8.33545 94.2725 8.33545C94.5459 8.33545 94.8091 8.36963 95.062 8.43799C95.9644 8.69775 96.4155 9.3335 96.4155 10.3452C96.4155 10.4204 96.4121 10.499 96.4053 10.5811C96.3369 11.4971 95.9268 12.2661 95.1748 12.8882C94.4365 13.5034 93.5786 13.811 92.6011 13.811C92.4165 13.811 92.2354 13.7939 92.0576 13.7598C92.0439 13.8623 92.0371 14.0059 92.0371 14.1904C92.0371 14.5869 92.1055 14.8945 92.2422 15.1133C92.4268 15.3936 92.8062 15.5576 93.3804 15.6055C93.6333 15.6055 93.8828 15.5781 94.1289 15.5234C94.5596 15.4209 95.0688 15.1782 95.6567 14.7954C96.0396 14.5425 96.3096 14.416 96.4668 14.416C96.5557 14.416 96.6479 14.4434 96.7437 14.498C96.9624 14.6279 97.0718 14.8159 97.0718 15.062C97.0718 15.144 97.0547 15.2329 97.0205 15.3286C96.8359 15.7729 96.2822 16.1934 95.3594 16.5898C94.5049 16.959 93.7529 17.1436 93.1035 17.1436C92.8574 17.1436 92.6284 17.123 92.4165 17.082C91.145 16.8223 90.5093 15.749 90.5093 13.8623ZM93.8008 9.94531C93.1787 10.3623 92.6899 11.1553 92.3345 12.3242C92.5054 12.3652 92.6694 12.3857 92.8267 12.3857C93.394 12.3857 93.8896 12.2114 94.3135 11.8628C94.7852 11.48 95.021 11.0254 95.021 10.499C95.021 9.97266 94.8535 9.70605 94.5186 9.69922C94.2793 9.70605 94.04 9.78809 93.8008 9.94531Z" stroke="white" mask="url(#path-1-outside-1_129_101)"/>
<path d="M101.532 17C99.8848 16.9316 98.6646 15.9268 97.8716 13.9854C97.2837 12.5225 96.9897 10.7314 96.9897 8.6123C96.9897 8.50293 96.9966 8.36279 97.0103 8.19189C97.106 6.74951 97.3726 5.42676 97.8101 4.22363C98.521 2.28223 99.5259 1.31152 100.825 1.31152C100.893 1.31152 100.965 1.31494 101.04 1.32178C102.223 1.39697 102.814 2.08398 102.814 3.38281C102.814 4.79785 102.206 6.37012 100.989 8.09961C100.216 9.2002 99.4062 10.0923 98.5586 10.7759C98.791 12.0747 99.0474 13.0488 99.3276 13.6982C99.8472 14.9014 100.62 15.5029 101.645 15.5029C101.713 15.5029 101.785 15.4961 101.86 15.4824C102.086 15.4414 102.4 15.2773 102.804 14.9902C103.193 14.7236 103.498 14.5903 103.716 14.5903C103.812 14.5903 103.904 14.6211 103.993 14.6826C104.191 14.8193 104.291 15.0039 104.291 15.2363C104.277 15.5918 104.024 15.9575 103.532 16.3335C102.917 16.7778 102.25 17 101.532 17ZM100.835 2.85986C100.432 2.8667 100.076 3.04102 99.7686 3.38281C98.9893 4.26465 98.562 6.10693 98.4868 8.90967C98.897 8.49268 99.3071 8.00049 99.7173 7.43311C100.852 5.88135 101.419 4.57227 101.419 3.50586C101.419 3.45117 101.406 3.38623 101.378 3.31104C101.269 3.01025 101.088 2.85986 100.835 2.85986Z" stroke="white" mask="url(#path-1-outside-1_129_101)"/>
</svg>
